<svg width="267" height="30" viewBox="0 0 267 30" fill="none" xmlns="http://www.w3.org/2000/svg">
<path d="M2.94717 28V1.44077H9.51401C10.6571 1.44077 11.7334 1.57453 12.7427 1.84207C13.7521 2.09745 14.6702 2.45619 15.4971 2.91831C16.397 3.39258 17.1936 3.98846 17.8867 4.70595C18.5921 5.42343 19.1819 6.22605 19.6561 7.11379C20.1426 8.03801 20.5196 9.05344 20.7871 10.1601C21.0546 11.2667 21.1884 12.4463 21.1884 13.6989V15.7784C21.1884 16.9823 21.0607 18.1254 20.8053 19.2077C20.5621 20.2779 20.2095 21.2568 19.7473 22.1446C19.2974 23.008 18.7502 23.7924 18.1056 24.4977C17.4733 25.203 16.7679 25.805 15.9896 26.3036C15.1141 26.8508 14.1412 27.2704 13.0711 27.5622C12.0131 27.8541 10.876 28 9.65994 28H2.94717ZM7.37979 5.01605V24.443H9.65994C10.4382 24.443 11.1496 24.3518 11.7942 24.1693C12.4509 23.9748 13.0407 23.7011 13.5636 23.3485C14.0986 22.9837 14.5729 22.5276 14.9864 21.9804C15.412 21.421 15.7586 20.7826 16.0261 20.0651C16.2572 19.457 16.4335 18.7943 16.5551 18.0768C16.6767 17.3593 16.7375 16.5931 16.7375 15.7784V13.6624C16.7375 12.8598 16.6767 12.0997 16.5551 11.3822C16.4335 10.6647 16.2572 10.002 16.0261 9.39394C15.7343 8.65213 15.3451 7.98329 14.8587 7.38741C14.3723 6.77937 13.7946 6.28685 13.1258 5.90987C12.6393 5.63017 12.0921 5.41735 11.4841 5.27142C10.876 5.11333 10.2193 5.02821 9.51401 5.01605H7.37979ZM26.2412 1.44077H41.8922V5.07077H36.2192V24.3882H41.8922V28H26.2412V24.3882H31.7866V5.07077H26.2412V1.44077ZM66.0254 16.4898C66.0254 17.5599 65.9281 18.5936 65.7335 19.5908C65.5511 20.588 65.2835 21.5304 64.9309 22.4182C64.5539 23.3059 64.0857 24.1268 63.5263 24.8807C62.9669 25.6226 62.3224 26.261 61.5927 26.7961C60.8874 27.2825 60.103 27.6656 59.2396 27.9453C58.3884 28.225 57.452 28.3648 56.4305 28.3648C55.3725 28.3648 54.3996 28.2189 53.5119 27.927C52.6363 27.623 51.8519 27.2095 51.1587 26.6866C50.4534 26.1516 49.8332 25.507 49.2981 24.7531C48.7752 23.9991 48.3374 23.1722 47.9848 22.2723C47.6443 21.4088 47.3889 20.4907 47.2186 19.5178C47.0484 18.5328 46.9633 17.5235 46.9633 16.4898V12.9875C46.9633 11.9052 47.0545 10.8593 47.2369 9.84997C47.4193 8.84063 47.6929 7.886 48.0577 6.9861C48.4104 6.12268 48.8421 5.33223 49.3529 4.61474C49.8758 3.88509 50.4899 3.25273 51.1952 2.71765C51.8762 2.19474 52.6484 1.79343 53.5119 1.51373C54.3874 1.22187 55.3481 1.07594 56.394 1.07594C57.452 1.07594 58.4248 1.22187 59.3126 1.51373C60.2003 1.80559 60.9969 2.21298 61.7022 2.73589C62.4075 3.25881 63.0216 3.87293 63.5445 4.57826C64.0675 5.28359 64.5052 6.0558 64.8579 6.89489C65.2471 7.7948 65.5389 8.76158 65.7335 9.79525C65.9281 10.8168 66.0254 11.8808 66.0254 12.9875V16.4898ZM61.611 12.951C61.5988 12.2821 61.5562 11.6255 61.4833 10.9809C61.4225 10.3364 61.313 9.72229 61.1549 9.13857C60.9725 8.46972 60.7293 7.86168 60.4253 7.31444C60.1334 6.75504 59.7747 6.28077 59.3491 5.89163C58.9721 5.55112 58.5404 5.28359 58.0539 5.08901C57.5675 4.89444 57.0142 4.79715 56.394 4.79715C55.7981 4.79715 55.263 4.89444 54.7888 5.08901C54.3145 5.27142 53.901 5.5268 53.5483 5.85514C53.1227 6.25645 52.764 6.7368 52.4721 7.2962C52.1803 7.84344 51.9553 8.45756 51.7972 9.13857C51.6513 9.72229 51.5418 10.3425 51.4688 10.9992C51.408 11.6437 51.3776 12.2943 51.3776 12.951V16.4898C51.3776 17.1343 51.408 17.7727 51.4688 18.4051C51.5297 19.0375 51.633 19.6455 51.7789 20.2292C51.937 20.8859 52.1499 21.5 52.4174 22.0716C52.6971 22.631 53.0315 23.1053 53.4207 23.4944C53.7976 23.8592 54.2294 24.1511 54.7158 24.37C55.2144 24.5767 55.7859 24.6801 56.4305 24.6801C57.0507 24.6801 57.6101 24.5767 58.1087 24.37C58.6194 24.1633 59.0572 23.8836 59.422 23.5309C59.8477 23.1296 60.2003 22.6553 60.48 22.1081C60.7719 21.5487 61.0029 20.9346 61.1732 20.2657C61.3191 19.682 61.4225 19.074 61.4833 18.4416C61.5562 17.7971 61.5988 17.1465 61.611 16.4898V12.951ZM88.3891 19.8279C88.2675 21.117 87.9635 22.2905 87.477 23.3485C86.9906 24.3943 86.3522 25.2881 85.5617 26.0299C84.7591 26.7839 83.8045 27.3676 82.6978 27.7811C81.6034 28.1824 80.3873 28.3831 79.0496 28.3831C77.9551 28.3831 76.9458 28.2371 76.0215 27.9453C75.1095 27.6413 74.2947 27.2156 73.5772 26.6684C72.8841 26.1576 72.276 25.5435 71.7531 24.826C71.2423 24.0964 70.8106 23.2998 70.458 22.4364C70.1053 21.5852 69.8378 20.6609 69.6554 19.6638C69.4851 18.6666 69.4 17.6268 69.4 16.5445V12.9145C69.4 11.8808 69.4851 10.8836 69.6554 9.92294C69.8256 8.96223 70.081 8.05625 70.4215 7.205C70.7863 6.25645 71.2545 5.39911 71.8261 4.63298C72.4098 3.85469 73.0786 3.19192 73.8326 2.64469C74.5501 2.14609 75.3405 1.75695 76.204 1.47725C77.0795 1.19755 78.0342 1.0577 79.0678 1.0577C80.4663 1.0577 81.7128 1.26443 82.8073 1.6779C83.9139 2.09137 84.8564 2.67509 85.6347 3.42906C86.4251 4.19519 87.0453 5.11941 87.4953 6.20173C87.9574 7.28404 88.2553 8.48796 88.3891 9.81349H84.0112C83.9382 9.02304 83.7862 8.31163 83.5552 7.67927C83.3363 7.03474 83.0323 6.48751 82.6431 6.03756C82.2418 5.58761 81.7493 5.2471 81.1656 5.01605C80.5819 4.77283 79.8826 4.65122 79.0678 4.65122C78.4963 4.65122 77.9794 4.73027 77.5173 4.88836C77.0674 5.04645 76.6661 5.27142 76.3134 5.56328C75.827 5.91595 75.4196 6.37806 75.0912 6.94962C74.7751 7.50902 74.5136 8.1353 74.3069 8.82846C74.1488 9.43651 74.0272 10.0871 73.942 10.7803C73.8691 11.4613 73.8326 12.1605 73.8326 12.878V16.5445C73.8326 17.4322 73.8812 18.2653 73.9785 19.0436C74.088 19.8218 74.2521 20.5333 74.471 21.1778C74.6413 21.7129 74.8541 22.1993 75.1095 22.6371C75.377 23.0749 75.6932 23.4519 76.058 23.768C76.435 24.1085 76.8667 24.37 77.3532 24.5524C77.8518 24.7227 78.4172 24.8078 79.0496 24.8078C79.8036 24.8078 80.4724 24.6983 81.0561 24.4794C81.6398 24.2605 82.1384 23.9383 82.5519 23.5127C82.9532 23.0992 83.2755 22.5824 83.5187 21.9622C83.7619 21.342 83.92 20.6305 83.993 19.8279H88.3891ZM93.3967 25.3733C93.3967 24.5342 93.6642 23.8167 94.1993 23.2208C94.7465 22.6249 95.5309 22.327 96.5524 22.327C97.5496 22.327 98.3279 22.6249 98.8873 23.2208C99.4467 23.8045 99.7264 24.522 99.7264 25.3733C99.7264 26.2245 99.4406 26.9359 98.8691 27.5075C98.3097 28.079 97.5374 28.3648 96.5524 28.3648C95.5552 28.3648 94.7769 28.079 94.2175 27.5075C93.6703 26.9238 93.3967 26.2124 93.3967 25.3733Z" fill="#1B1B1B"/>
<path d="M110.351 4.08574H114.419C115.672 4.08574 116.845 4.3472 117.94 4.87012C119.034 5.38087 119.995 6.11052 120.822 7.05907C121.649 8.00761 122.293 9.13857 122.755 10.4519C123.217 11.7531 123.448 13.1942 123.448 14.7751C123.448 16.356 123.217 17.8032 122.755 19.1165C122.293 20.4299 121.649 21.5669 120.822 22.5276C119.995 23.4762 119.034 24.2119 117.94 24.7348C116.845 25.2456 115.672 25.501 114.419 25.501H110.351C109.099 25.501 107.925 25.2456 106.831 24.7348C105.748 24.2119 104.794 23.4762 103.967 22.5276C103.14 21.5791 102.495 20.4542 102.033 19.153C101.571 17.8396 101.34 16.3925 101.34 14.8116C101.34 13.2307 101.571 11.7896 102.033 10.4884C102.495 9.17505 103.14 8.04409 103.967 7.09555C104.794 6.13484 105.748 5.39303 106.831 4.87012C107.925 4.3472 109.099 4.08574 110.351 4.08574ZM110.351 6.85841C109.099 6.85841 108.035 7.19283 107.159 7.86168C106.296 8.51836 105.639 9.44259 105.189 10.6343C104.751 11.8261 104.532 13.2185 104.532 14.8116C104.532 16.0155 104.654 17.1039 104.897 18.0768C105.152 19.0496 105.523 19.8827 106.01 20.5758C106.508 21.269 107.116 21.8041 107.834 22.181C108.564 22.558 109.403 22.7465 110.351 22.7465H114.455C115.708 22.7465 116.76 22.4182 117.611 21.7615C118.475 21.0927 119.131 20.1624 119.581 18.9706C120.031 17.7667 120.256 16.3682 120.256 14.7751C120.256 13.5833 120.129 12.501 119.873 11.5282C119.618 10.5553 119.241 9.72229 118.742 9.02912C118.256 8.33595 117.654 7.80088 116.936 7.42389C116.219 7.0469 115.392 6.85841 114.455 6.85841H110.351ZM114.018 0.346292V29.0945H110.807V0.346292H114.018ZM131.347 21.9074L141.69 1.44077H145.046V28H141.69V7.5151L131.347 28H128.009V1.44077H131.347V21.9074ZM165.421 12.8598V15.7237H153.911V12.8598H165.421ZM154.367 1.44077V28H151.011V1.44077H154.367ZM168.395 1.44077V28H165.038V1.44077H168.395ZM183.115 3.79388L175.855 28H172.426L180.981 1.44077H183.134L183.115 3.79388ZM188.989 28L181.729 3.79388L181.693 1.44077H183.863L192.419 28H188.989ZM188.989 18.168V21.0501H176.184V18.168H188.989ZM210.477 12.8598V15.7237H198.967V12.8598H210.477ZM199.423 1.44077V28H196.067V1.44077H199.423ZM213.451 1.44077V28H210.094V1.44077H213.451ZM232.531 19.5543H235.887C235.802 21.3784 235.431 22.9533 234.775 24.2788C234.13 25.5922 233.188 26.6015 231.947 27.3068C230.719 28.0122 229.181 28.3648 227.332 28.3648C226.007 28.3648 224.809 28.1034 223.739 27.5805C222.669 27.0575 221.75 26.3096 220.984 25.3368C220.23 24.3518 219.653 23.1722 219.251 21.798C218.85 20.4238 218.649 18.8794 218.649 17.1647V12.2578C218.649 10.5553 218.85 9.01696 219.251 7.64278C219.665 6.26861 220.255 5.09509 221.021 4.12223C221.799 3.1372 222.742 2.38323 223.848 1.86031C224.967 1.3374 226.232 1.07594 227.642 1.07594C229.369 1.07594 230.828 1.42252 232.02 2.11569C233.224 2.7967 234.148 3.79997 234.793 5.12549C235.45 6.43886 235.814 8.05017 235.887 9.95942H232.531C232.446 8.56093 232.227 7.42389 231.874 6.54831C231.522 5.66057 230.999 5.00997 230.306 4.5965C229.625 4.17087 228.737 3.95806 227.642 3.95806C226.669 3.95806 225.824 4.15263 225.107 4.54178C224.401 4.93092 223.818 5.49032 223.356 6.21997C222.906 6.93746 222.565 7.80696 222.334 8.82846C222.115 9.83781 222.006 10.9688 222.006 12.2213V17.1647C222.006 18.3321 222.097 19.4205 222.279 20.4299C222.474 21.4392 222.778 22.327 223.191 23.0931C223.617 23.8471 224.17 24.4369 224.851 24.8625C225.532 25.2881 226.359 25.501 227.332 25.501C228.56 25.501 229.533 25.3003 230.251 24.899C230.968 24.4977 231.497 23.8592 231.838 22.9837C232.19 22.1081 232.422 20.965 232.531 19.5543ZM243.257 12.2578H249.295C250.936 12.2578 252.323 12.5862 253.454 13.2428C254.597 13.8874 255.46 14.7933 256.044 15.9608C256.64 17.1282 256.938 18.4963 256.938 20.0651C256.938 21.2325 256.768 22.3027 256.427 23.2755C256.099 24.2362 255.606 25.0753 254.949 25.7928C254.305 26.4981 253.508 27.0454 252.56 27.4345C251.611 27.8115 250.523 28 249.295 28H240.612V1.44077H243.968V25.1361H249.295C250.316 25.1361 251.137 24.899 251.757 24.4247C252.39 23.9383 252.852 23.3059 253.144 22.5276C253.435 21.7493 253.581 20.9163 253.581 20.0286C253.581 19.1408 253.435 18.3261 253.144 17.5843C252.852 16.8424 252.39 16.2526 251.757 15.8149C251.137 15.3649 250.316 15.1399 249.295 15.1399H243.257V12.2578ZM262.611 1.44077V28H259.254V1.44077H262.611Z" fill="#4D71CF"/>
</svg>
