<svg width="20" height="20" viewBox="0 0 20 20" fill="none" xmlns="http://www.w3.org/2000/svg">
<g clip-path="url(#clip0_14_269)">
<path d="M12.9167 11.6667H12.2583L12.025 11.4417C12.8417 10.4917 13.3333 9.25836 13.3333 7.9167C13.3333 4.92503 10.9083 2.50003 7.91667 2.50003C4.925 2.50003 2.5 4.92503 2.5 7.9167C2.5 10.9084 4.925 13.3334 7.91667 13.3334C9.25833 13.3334 10.4917 12.8417 11.4417 12.025L11.6667 12.2584V12.9167L15.8333 17.075L17.075 15.8334L12.9167 11.6667ZM7.91667 11.6667C5.84167 11.6667 4.16667 9.9917 4.16667 7.9167C4.16667 5.8417 5.84167 4.1667 7.91667 4.1667C9.99167 4.1667 11.6667 5.8417 11.6667 7.9167C11.6667 9.9917 9.99167 11.6667 7.91667 11.6667Z" fill="#667085"/>
</g>
<defs>
<clipPath id="clip0_14_269">
<rect width="20" height="20" fill="white"/>
</clipPath>
</defs>
</svg>
